<mxfile host="app.diagrams.net" modified="2023-03-27T08:12:35.512Z" agent="Mozilla/5.0 (Windows NT 10.0; Win64; x64) AppleWebKit/537.36 (KHTML, like Gecko) Chrome/111.0.0.0 Safari/537.36" etag="DRfiHqGFO8aW302Imuak" version="21.1.0" type="device">
  <diagram name="Page-1" id="2YBvvXClWsGukQMizWep">
    <mxGraphModel dx="1434" dy="739" grid="1" gridSize="10" guides="1" tooltips="1" connect="1" arrows="1" fold="1" page="1" pageScale="1" pageWidth="850" pageHeight="1100" math="0" shadow="0">
      <root>
        <mxCell id="0" />
        <mxCell id="1" parent="0" />
        <mxCell id="pjgMxtTdZgPTEozuZZsP-2" value="INBUS" style="rounded=0;whiteSpace=wrap;html=1;fontStyle=1" vertex="1" parent="1">
          <mxGeometry x="82" y="410" width="680" height="20" as="geometry" />
        </mxCell>
        <mxCell id="pjgMxtTdZgPTEozuZZsP-4" value="OUTBUS" style="rounded=0;whiteSpace=wrap;html=1;fontStyle=1" vertex="1" parent="1">
          <mxGeometry x="82" y="490" width="680" height="20" as="geometry" />
        </mxCell>
        <mxCell id="pjgMxtTdZgPTEozuZZsP-5" value="&lt;font style=&quot;font-size: 18px;&quot; face=&quot;Times New Roman&quot;&gt;&lt;b&gt;A&lt;/b&gt;&lt;/font&gt;" style="shape=process;whiteSpace=wrap;html=1;backgroundOutline=1;size=0.16666666666666666;" vertex="1" parent="1">
          <mxGeometry x="182" y="80" width="120" height="60" as="geometry" />
        </mxCell>
        <mxCell id="pjgMxtTdZgPTEozuZZsP-7" value="&lt;font style=&quot;font-size: 18px;&quot; face=&quot;Times New Roman&quot;&gt;&lt;b&gt;Q&lt;/b&gt;&lt;/font&gt;" style="shape=process;whiteSpace=wrap;html=1;backgroundOutline=1;size=0.16666666666666666;" vertex="1" parent="1">
          <mxGeometry x="382" y="80" width="120" height="60" as="geometry" />
        </mxCell>
        <mxCell id="pjgMxtTdZgPTEozuZZsP-8" value="&lt;font style=&quot;font-size: 18px;&quot; face=&quot;Times New Roman&quot;&gt;&lt;b&gt;M&lt;/b&gt;&lt;/font&gt;" style="shape=process;whiteSpace=wrap;html=1;backgroundOutline=1;size=0.16666666666666666;" vertex="1" parent="1">
          <mxGeometry x="582" y="80" width="120" height="60" as="geometry" />
        </mxCell>
        <mxCell id="pjgMxtTdZgPTEozuZZsP-9" value="7" style="text;html=1;strokeColor=none;fillColor=none;align=center;verticalAlign=middle;whiteSpace=wrap;rounded=0;" vertex="1" parent="1">
          <mxGeometry x="582" y="95" width="20" height="30" as="geometry" />
        </mxCell>
        <mxCell id="pjgMxtTdZgPTEozuZZsP-10" value="0" style="text;html=1;strokeColor=none;fillColor=none;align=center;verticalAlign=middle;whiteSpace=wrap;rounded=0;" vertex="1" parent="1">
          <mxGeometry x="682" y="95" width="20" height="30" as="geometry" />
        </mxCell>
        <mxCell id="pjgMxtTdZgPTEozuZZsP-49" style="edgeStyle=orthogonalEdgeStyle;rounded=0;orthogonalLoop=1;jettySize=auto;html=1;entryX=1;entryY=0.5;entryDx=0;entryDy=0;" edge="1" parent="1" source="pjgMxtTdZgPTEozuZZsP-11" target="pjgMxtTdZgPTEozuZZsP-41">
          <mxGeometry relative="1" as="geometry" />
        </mxCell>
        <mxCell id="pjgMxtTdZgPTEozuZZsP-11" value="7" style="text;html=1;strokeColor=none;fillColor=none;align=center;verticalAlign=middle;whiteSpace=wrap;rounded=0;" vertex="1" parent="1">
          <mxGeometry x="382" y="95" width="20" height="30" as="geometry" />
        </mxCell>
        <mxCell id="pjgMxtTdZgPTEozuZZsP-12" value="0" style="text;html=1;strokeColor=none;fillColor=none;align=center;verticalAlign=middle;whiteSpace=wrap;rounded=0;" vertex="1" parent="1">
          <mxGeometry x="482" y="95" width="20" height="30" as="geometry" />
        </mxCell>
        <mxCell id="pjgMxtTdZgPTEozuZZsP-13" value="&lt;font style=&quot;font-size: 18px;&quot; face=&quot;Times New Roman&quot;&gt;&lt;b&gt;CONTROL UNIT&lt;/b&gt;&lt;/font&gt;" style="rounded=0;whiteSpace=wrap;html=1;" vertex="1" parent="1">
          <mxGeometry x="331" y="712" width="310" height="200" as="geometry" />
        </mxCell>
        <mxCell id="pjgMxtTdZgPTEozuZZsP-19" value="BEGIN" style="html=1;shadow=0;dashed=0;align=center;verticalAlign=middle;shape=mxgraph.arrows2.arrow;dy=0.67;dx=20;notch=0;" vertex="1" parent="1">
          <mxGeometry x="231" y="722" width="100" height="40" as="geometry" />
        </mxCell>
        <mxCell id="pjgMxtTdZgPTEozuZZsP-20" value="CLOCK" style="html=1;shadow=0;dashed=0;align=center;verticalAlign=middle;shape=mxgraph.arrows2.arrow;dy=0.67;dx=20;notch=0;" vertex="1" parent="1">
          <mxGeometry x="231" y="772" width="100" height="40" as="geometry" />
        </mxCell>
        <mxCell id="pjgMxtTdZgPTEozuZZsP-21" value="RESET" style="html=1;shadow=0;dashed=0;align=center;verticalAlign=middle;shape=mxgraph.arrows2.arrow;dy=0.67;dx=20;notch=0;" vertex="1" parent="1">
          <mxGeometry x="231" y="822" width="100" height="40" as="geometry" />
        </mxCell>
        <mxCell id="pjgMxtTdZgPTEozuZZsP-23" value="END" style="html=1;shadow=0;dashed=0;align=center;verticalAlign=middle;shape=mxgraph.arrows2.arrow;dy=0.6;dx=40;flipH=1;notch=0;" vertex="1" parent="1">
          <mxGeometry x="231" y="872" width="100" height="30" as="geometry" />
        </mxCell>
        <mxCell id="pjgMxtTdZgPTEozuZZsP-31" style="edgeStyle=orthogonalEdgeStyle;rounded=0;orthogonalLoop=1;jettySize=auto;html=1;entryX=0;entryY=0.75;entryDx=0;entryDy=0;entryPerimeter=0;" edge="1" parent="1" source="pjgMxtTdZgPTEozuZZsP-25" target="pjgMxtTdZgPTEozuZZsP-28">
          <mxGeometry relative="1" as="geometry" />
        </mxCell>
        <mxCell id="pjgMxtTdZgPTEozuZZsP-25" value="" style="whiteSpace=wrap;html=1;aspect=fixed;" vertex="1" parent="1">
          <mxGeometry x="386" y="558" width="40" height="40" as="geometry" />
        </mxCell>
        <mxCell id="pjgMxtTdZgPTEozuZZsP-33" style="edgeStyle=orthogonalEdgeStyle;rounded=0;orthogonalLoop=1;jettySize=auto;html=1;" edge="1" parent="1" source="pjgMxtTdZgPTEozuZZsP-26" target="pjgMxtTdZgPTEozuZZsP-28">
          <mxGeometry relative="1" as="geometry">
            <Array as="points">
              <mxPoint x="441" y="611" />
              <mxPoint x="441" y="611" />
            </Array>
          </mxGeometry>
        </mxCell>
        <mxCell id="pjgMxtTdZgPTEozuZZsP-26" value="" style="whiteSpace=wrap;html=1;aspect=fixed;" vertex="1" parent="1">
          <mxGeometry x="426" y="558" width="40" height="40" as="geometry" />
        </mxCell>
        <mxCell id="pjgMxtTdZgPTEozuZZsP-34" style="edgeStyle=orthogonalEdgeStyle;rounded=0;orthogonalLoop=1;jettySize=auto;html=1;entryX=0;entryY=0.25;entryDx=0;entryDy=0;entryPerimeter=0;" edge="1" parent="1" source="pjgMxtTdZgPTEozuZZsP-27" target="pjgMxtTdZgPTEozuZZsP-28">
          <mxGeometry relative="1" as="geometry">
            <Array as="points">
              <mxPoint x="485" y="622" />
              <mxPoint x="451" y="622" />
            </Array>
          </mxGeometry>
        </mxCell>
        <mxCell id="pjgMxtTdZgPTEozuZZsP-27" value="" style="whiteSpace=wrap;html=1;aspect=fixed;" vertex="1" parent="1">
          <mxGeometry x="466" y="558" width="40" height="40" as="geometry" />
        </mxCell>
        <mxCell id="pjgMxtTdZgPTEozuZZsP-37" style="edgeStyle=orthogonalEdgeStyle;rounded=0;orthogonalLoop=1;jettySize=auto;html=1;exitX=1;exitY=0.5;exitDx=0;exitDy=0;exitPerimeter=0;entryX=0.355;entryY=0.01;entryDx=0;entryDy=0;entryPerimeter=0;" edge="1" parent="1" source="pjgMxtTdZgPTEozuZZsP-28" target="pjgMxtTdZgPTEozuZZsP-13">
          <mxGeometry relative="1" as="geometry" />
        </mxCell>
        <mxCell id="pjgMxtTdZgPTEozuZZsP-28" value="" style="verticalLabelPosition=bottom;shadow=0;dashed=0;align=center;html=1;verticalAlign=top;shape=mxgraph.electrical.logic_gates.logic_gate;operation=and;rotation=90;" vertex="1" parent="1">
          <mxGeometry x="416" y="651" width="50" height="40" as="geometry" />
        </mxCell>
        <mxCell id="pjgMxtTdZgPTEozuZZsP-38" value="COUNTER" style="text;html=1;strokeColor=none;fillColor=none;align=center;verticalAlign=middle;whiteSpace=wrap;rounded=0;" vertex="1" parent="1">
          <mxGeometry x="382" y="528" width="60" height="30" as="geometry" />
        </mxCell>
        <mxCell id="pjgMxtTdZgPTEozuZZsP-39" value="COUNT 7" style="text;html=1;strokeColor=none;fillColor=none;align=center;verticalAlign=middle;whiteSpace=wrap;rounded=0;" vertex="1" parent="1">
          <mxGeometry x="472" y="656" width="60" height="30" as="geometry" />
        </mxCell>
        <mxCell id="pjgMxtTdZgPTEozuZZsP-43" value="" style="edgeStyle=orthogonalEdgeStyle;rounded=0;orthogonalLoop=1;jettySize=auto;html=1;" edge="1" parent="1" source="pjgMxtTdZgPTEozuZZsP-40" target="pjgMxtTdZgPTEozuZZsP-42">
          <mxGeometry relative="1" as="geometry" />
        </mxCell>
        <mxCell id="pjgMxtTdZgPTEozuZZsP-40" value="7" style="text;html=1;strokeColor=none;fillColor=none;align=center;verticalAlign=middle;whiteSpace=wrap;rounded=0;" vertex="1" parent="1">
          <mxGeometry x="182" y="95" width="20" height="30" as="geometry" />
        </mxCell>
        <mxCell id="pjgMxtTdZgPTEozuZZsP-41" value="0" style="text;html=1;strokeColor=none;fillColor=none;align=center;verticalAlign=middle;whiteSpace=wrap;rounded=0;" vertex="1" parent="1">
          <mxGeometry x="282" y="95" width="20" height="30" as="geometry" />
        </mxCell>
        <mxCell id="pjgMxtTdZgPTEozuZZsP-47" style="edgeStyle=orthogonalEdgeStyle;rounded=0;orthogonalLoop=1;jettySize=auto;html=1;entryX=0;entryY=0.5;entryDx=0;entryDy=0;" edge="1" parent="1" source="pjgMxtTdZgPTEozuZZsP-42">
          <mxGeometry relative="1" as="geometry">
            <mxPoint x="346" y="25" as="targetPoint" />
            <Array as="points">
              <mxPoint x="107" y="25" />
            </Array>
          </mxGeometry>
        </mxCell>
        <mxCell id="pjgMxtTdZgPTEozuZZsP-42" value="&lt;font style=&quot;font-size: 18px;&quot; face=&quot;Times New Roman&quot;&gt;S&lt;/font&gt;" style="whiteSpace=wrap;html=1;aspect=fixed;" vertex="1" parent="1">
          <mxGeometry x="82" y="85" width="50" height="50" as="geometry" />
        </mxCell>
        <mxCell id="pjgMxtTdZgPTEozuZZsP-48" style="edgeStyle=orthogonalEdgeStyle;rounded=0;orthogonalLoop=1;jettySize=auto;html=1;entryX=0.892;entryY=0.017;entryDx=0;entryDy=0;entryPerimeter=0;" edge="1" parent="1" target="pjgMxtTdZgPTEozuZZsP-7">
          <mxGeometry relative="1" as="geometry">
            <mxPoint x="402" y="25" as="sourcePoint" />
            <Array as="points">
              <mxPoint x="489" y="25" />
            </Array>
          </mxGeometry>
        </mxCell>
        <mxCell id="pjgMxtTdZgPTEozuZZsP-44" value="" style="verticalLabelPosition=bottom;shadow=0;dashed=0;align=center;html=1;verticalAlign=top;shape=mxgraph.electrical.logic_gates.buffer2;" vertex="1" parent="1">
          <mxGeometry x="341" y="10" width="56" height="30" as="geometry" />
        </mxCell>
        <mxCell id="pjgMxtTdZgPTEozuZZsP-45" value="" style="verticalLabelPosition=bottom;shadow=0;dashed=0;align=center;html=1;verticalAlign=top;shape=mxgraph.electrical.logic_gates.inverting_contact;" vertex="1" parent="1">
          <mxGeometry x="387" y="20" width="10" height="10" as="geometry" />
        </mxCell>
        <mxCell id="pjgMxtTdZgPTEozuZZsP-51" style="edgeStyle=orthogonalEdgeStyle;rounded=0;orthogonalLoop=1;jettySize=auto;html=1;entryX=0.5;entryY=1;entryDx=0;entryDy=0;" edge="1" parent="1" source="pjgMxtTdZgPTEozuZZsP-50" target="pjgMxtTdZgPTEozuZZsP-42">
          <mxGeometry relative="1" as="geometry">
            <Array as="points">
              <mxPoint x="412" y="340" />
              <mxPoint x="107" y="340" />
            </Array>
          </mxGeometry>
        </mxCell>
        <mxCell id="pjgMxtTdZgPTEozuZZsP-50" value="&lt;font style=&quot;font-size: 18px;&quot; face=&quot;Times New Roman&quot;&gt;9 BIT PARALLEL ADDER&lt;/font&gt;" style="rounded=0;whiteSpace=wrap;html=1;" vertex="1" parent="1">
          <mxGeometry x="317" y="220" width="190" height="100" as="geometry" />
        </mxCell>
        <mxCell id="pjgMxtTdZgPTEozuZZsP-53" value="" style="endArrow=classic;html=1;rounded=0;entryX=0.25;entryY=1;entryDx=0;entryDy=0;" edge="1" parent="1" target="pjgMxtTdZgPTEozuZZsP-5">
          <mxGeometry width="50" height="50" relative="1" as="geometry">
            <mxPoint x="210" y="340" as="sourcePoint" />
            <mxPoint x="252" y="290" as="targetPoint" />
          </mxGeometry>
        </mxCell>
        <mxCell id="pjgMxtTdZgPTEozuZZsP-54" value="" style="endArrow=classic;html=1;rounded=0;entryX=0.232;entryY=-0.15;entryDx=0;entryDy=0;entryPerimeter=0;" edge="1" parent="1" target="pjgMxtTdZgPTEozuZZsP-2">
          <mxGeometry width="50" height="50" relative="1" as="geometry">
            <mxPoint x="241.5" y="135" as="sourcePoint" />
            <mxPoint x="241.5" y="235" as="targetPoint" />
          </mxGeometry>
        </mxCell>
        <mxCell id="pjgMxtTdZgPTEozuZZsP-57" value="" style="endArrow=none;html=1;rounded=0;" edge="1" parent="1">
          <mxGeometry width="50" height="50" relative="1" as="geometry">
            <mxPoint x="120" y="670" as="sourcePoint" />
            <mxPoint x="120" y="135" as="targetPoint" />
          </mxGeometry>
        </mxCell>
        <mxCell id="pjgMxtTdZgPTEozuZZsP-59" value="" style="endArrow=none;html=1;rounded=0;" edge="1" parent="1">
          <mxGeometry width="50" height="50" relative="1" as="geometry">
            <mxPoint x="120" y="670.5" as="sourcePoint" />
            <mxPoint x="370" y="670" as="targetPoint" />
          </mxGeometry>
        </mxCell>
        <mxCell id="pjgMxtTdZgPTEozuZZsP-60" value="" style="endArrow=classic;html=1;rounded=0;" edge="1" parent="1">
          <mxGeometry width="50" height="50" relative="1" as="geometry">
            <mxPoint x="369" y="670" as="sourcePoint" />
            <mxPoint x="368.5" y="712" as="targetPoint" />
          </mxGeometry>
        </mxCell>
      </root>
    </mxGraphModel>
  </diagram>
</mxfile>
